<svg xmlns="http://www.w3.org/2000/svg" width="800" height="600" viewBox="0 0 800 600"><defs><linearGradient id="shieldGrad" x1="0%" x2="100%" y1="0%" y2="100%"><stop offset="0%" stop-color="#0e3364"/><stop offset="50%" stop-color="#144e96"/><stop offset="100%" stop-color="#081b34"/></linearGradient><linearGradient id="shieldBorder" x1="0%" x2="100%" y1="0%" y2="100%"><stop offset="0%" stop-color="#38bdf8"/><stop offset="50%" stop-color="#fff"/><stop offset="100%" stop-color="#144e96"/></linearGradient><linearGradient id="bgGlint" x1="0%" x2="100%" y1="0%" y2="100%"><stop offset="0%" stop-color="#081b34"/><stop offset="100%" stop-color="#040d1a"/></linearGradient><filter id="cardShadow" width="120%" height="120%" x="-10%" y="-10%"><feDropShadow dx="0" dy="10" flood-color="#000" flood-opacity=".4" stdDeviation="14"/></filter></defs><rect width="800" height="600" fill="url(#bgGlint)" rx="24"/><circle cx="400" cy="300" r="260" fill="none" stroke="rgba(255,255,255,0.03)"/><circle cx="400" cy="300" r="190" fill="none" stroke="rgba(255,255,255,0.05)" stroke-dasharray="6,6"/><circle cx="400" cy="300" r="110" fill="rgba(56, 189, 248, 0.08)" filter="blur(20px)"/><path stroke="#38bdf8" stroke-dasharray="4,4" stroke-width="2" d="m290 260 30 20m190-20-30 20"/><g filter="url(#cardShadow)" transform="translate(400 300)scale(1.18)"><path fill="url(#shieldGrad)" stroke="url(#shieldBorder)" stroke-width="3" d="M0-80c-60 10-75 20-75 50 0 55 25 105 75 130C50 75 75 25 75-30c0-30-15-40-75-50Z"/><path fill="rgba(8, 27, 52, 0.8)" stroke="rgba(56, 189, 248, 0.3)" stroke-width="1.5" d="M0-50c-45 8-55 15-55 35 0 45 20 75 55 95 35-20 55-50 55-95 0-20-10-27-55-35Z"/><circle cy="-10" r="16" fill="none" stroke="#38bdf8" stroke-width="3"/><rect width="40" height="32" x="-20" y="-8" fill="#38bdf8" rx="4"/><circle cy="8" r="4" fill="#081b34"/></g><text x="400" y="465" fill="#fff" font-family="'Montserrat', sans-serif" font-size="20" font-weight="800" letter-spacing="1" text-anchor="middle">GOVERNANCE &amp; POPIA</text><text x="400" y="490" fill="#38bdf8" font-family="'Inter', sans-serif" font-size="14" font-weight="600" text-anchor="middle">Full South African Legal Alignment</text><g filter="url(#cardShadow)" transform="translate(30 160)"><rect width="260" height="200" fill="rgba(14, 40, 78, 0.92)" stroke="rgba(56, 189, 248, 0.4)" stroke-width="1.5" rx="16"/><circle cx="28" cy="32" r="10" fill="#38bdf8" opacity=".2"/><circle cx="28" cy="32" r="4" fill="#38bdf8"/><text x="50" y="36" fill="#fff" font-family="'Montserrat', sans-serif" font-size="16" font-weight="700">CIPC &amp; Secretarial</text><path stroke="rgba(255,255,255,0.15)" d="M20 58h220"/><text x="24" y="90" fill="#e2e8f0" font-family="'Inter', sans-serif" font-size="13">✓ Annual Return Lodgement</text><text x="24" y="120" fill="#e2e8f0" font-family="'Inter', sans-serif" font-size="13">✓ Beneficial Ownership Logs</text><text x="24" y="150" fill="#e2e8f0" font-family="'Inter', sans-serif" font-size="13">✓ Director Amendments</text><text x="24" y="180" fill="#38bdf8" font-family="'Inter', sans-serif" font-size="12" font-weight="600">Statutory Standing: 100%</text></g><g filter="url(#cardShadow)" transform="translate(510 160)"><rect width="260" height="200" fill="rgba(14, 40, 78, 0.92)" stroke="rgba(56, 189, 248, 0.4)" stroke-width="1.5" rx="16"/><circle cx="28" cy="32" r="10" fill="#10b981" opacity=".2"/><circle cx="28" cy="32" r="4" fill="#10b981"/><text x="50" y="36" fill="#fff" font-family="'Montserrat', sans-serif" font-size="16" font-weight="700">POPIA Data Protection</text><path stroke="rgba(255,255,255,0.15)" d="M20 58h220"/><text x="24" y="90" fill="#e2e8f0" font-family="'Inter', sans-serif" font-size="13">✓ Confidential Processing</text><text x="24" y="120" fill="#e2e8f0" font-family="'Inter', sans-serif" font-size="13">✓ Encrypted Client Vault</text><text x="24" y="150" fill="#e2e8f0" font-family="'Inter', sans-serif" font-size="13">✓ Lawful SARS Transmission</text><text x="24" y="180" fill="#10b981" font-family="'Inter', sans-serif" font-size="12" font-weight="600">Security Protocol Verified</text></g></svg>